<?xml version="1.0" encoding="utf-8"?>
<!-- Generator: Adobe Illustrator 26.0.3, SVG Export Plug-In . SVG Version: 6.00 Build 0)  -->
<svg version="1.1" id="Ebene_1" xmlns="http://www.w3.org/2000/svg" xmlns:xlink="http://www.w3.org/1999/xlink" x="0px" y="0px"
	 viewBox="0 0 1000 1000" style="enable-background:new 0 0 1000 1000;" xml:space="preserve">
<style type="text/css">
	.st0{fill: currentColor);}
</style>
<g id="Ebene_2_00000107583080045391419000000006957545464123106720_">
</g>
<g id="Ebene_1_00000044878242749964925440000005807232401268224170_">
	<g>
		<path class="st0" d="M502.5,990.2c-270.2,0-490.1-219.9-490.1-490.1C12.4,229.9,232.2,10,502.5,10s490.1,219.9,490.1,490.1
			C992.6,770.3,772.7,990.2,502.5,990.2z M502.5,43.4c-251.8,0-456.7,204.9-456.7,456.7s204.9,456.7,456.7,456.7
			s456.7-204.9,456.7-456.7S754.3,43.4,502.5,43.4z"/>
	</g>
	<g>
		<path class="st0" d="M755.2,290.8H249.8c-14.6,0-36.4,9.7-36.4,36.4V673c0,14.6,9.7,36.4,36.4,36.4h505.5
			c14.6,0,36.4-9.7,36.4-36.4V327.2C791.6,312.6,781.9,290.8,755.2,290.8 M614.6,498.3c59.1-63.5,134.6-150.8,157.1-177
			c0.7,2.4,0.9,4.6,0.9,5.9v345.2L614.6,498.3z M755.2,309.8c0.5,0,0.8,0.1,1.3,0.1c-58.8,68.3-194.6,223.1-222.1,241l-0.8,0.6
			c-13,10.5-20.9,12-27.4,12H503H502h-3.2c-6.5,0-14.3-1.5-27.4-12l-0.8-0.6c-27.5-17.9-163.4-172.8-222.1-241c0.5,0,1-0.1,1.3-0.1
			H755.2z M232.4,672.4V327.2c0-2.3,0.3-4.2,0.8-6c22.4,26,98,113.4,157.2,177.1L232.4,672.4z M755.2,690.4H249.8
			c-2.8,0-5.1-0.5-7-1.2l160.7-177c25.3,26.8,46.2,47.5,56.4,54.3c13.7,11,25.8,15.9,39,15.9h3.2h1.1h3.2c13.2,0,25.2-4.9,39-15.9
			c10.1-6.8,31.1-27.5,56.3-54.3l160.7,176.9C759.4,690.2,756.7,690.4,755.2,690.4"/>
		<path class="st0" d="M755.2,711.3H249.8c-28.1,0-38.2-22.9-38.2-38.3V327.2c0-28.1,22.9-38.3,38.2-38.3h505.5
			c28.1,0,38.2,22.9,38.2,38.3V673C793.5,701.1,770.6,711.3,755.2,711.3z M249.8,292.6c-13.9,0-34.6,9.2-34.6,34.6V673
			c0,13.9,9.2,34.6,34.6,34.6h505.5c13.9,0,34.6-9.2,34.6-34.6V327.2c0-13.9-9.2-34.6-34.6-34.6L249.8,292.6L249.8,292.6z
			 M755.2,692.3H249.8c-2.7,0-5.1-0.4-7.7-1.3l-2.6-0.9l163.9-180.5l1.4,1.4c28.1,29.8,47,48,56,54l0.1,0.1
			c13.4,10.7,25,15.5,37.8,15.5h7.5c12.8,0,24.4-4.8,37.8-15.5l0.1-0.1c9.1-6.1,27.9-24.3,56-54l1.4-1.4L765.4,690l-2.6,0.9
			C759.7,692,756.7,692.3,755.2,692.3L755.2,692.3z M246.1,688.2c1.2,0.2,2.4,0.4,3.7,0.4h505.4c0.8,0,2.2-0.1,3.7-0.4L601.5,514.9
			c-27.5,29-46.1,46.9-55.2,53.1c-14,11.2-26.4,16.2-40,16.2h-7.5c-13.6,0-26-5-40-16.2c-9.2-6.2-27.7-24-55.2-53.1L246.1,688.2z
			 M230.5,677.1V327.2c0-2.2,0.3-4.3,0.9-6.5l0.9-3.3l2.2,2.6c21.9,25.4,98,113.4,157.2,177l1.1,1.2L230.5,677.1z M234.3,325.3
			c-0.1,0.6-0.1,1.2-0.1,1.9v340.4l153.7-169.3C331,437,258.8,353.8,234.3,325.3z M774.5,677.1L612.1,498.3l1.2-1.2
			c59.6-64.1,135.3-151.6,157-176.9l2.2-2.6l1,3.3c0.9,3.1,1,5.6,1,6.3L774.5,677.1L774.5,677.1z M617.1,498.3l153.7,169.3V327.2
			c0-0.5,0-1.1-0.1-1.8C746.3,353.6,674.5,436.5,617.1,498.3z M506.3,565.3h-7.5c-6.9,0-15.1-1.5-28.5-12.4l-0.7-0.5
			c-33-21.5-214.7-232.3-222.4-241.3l-2.4-2.8l3.9-0.3c0.4,0,0.8-0.1,1.1-0.1h505.5c0.4,0,0.7,0,1,0.1c0.1,0,0.2,0,0.4,0l3.7,0.2
			l-2.4,2.8c-7.7,9-189.5,219.8-222.5,241.3l-0.7,0.5C521.3,563.8,513.1,565.3,506.3,565.3z M252.4,311.6
			c70.5,81.8,193.4,220.9,219.2,237.7l0.9,0.6c12.7,10.2,20.1,11.6,26.3,11.6h7.5c6.2,0,13.6-1.4,26.2-11.6l0.8-0.6
			c25.8-16.8,148.7-155.9,219.3-237.8L252.4,311.6L252.4,311.6z"/>
	</g>
</g>
<g id="Ebene_3">
</g>
</svg>
