<svg xmlns="http://www.w3.org/2000/svg" xml:space="preserve" x="0" y="0" style="enable-background:new 0 0 1000 1000" version="1.1" viewBox="0 0 1000 1000">
  <style>
    .st1{fill:currentColor;stroke:currentColor;stroke-width:5;stroke-miterlimit:10}
  </style>
  <g>
    <path d="M502.6 994.7C231 994.7 10.1 773.8 10.1 502.3S231 9.9 502.6 9.9 995 230.8 995 502.3 774.1 994.7 502.6 994.7zm0-957.5c-256.5 0-465.1 208.7-465.1 465.1 0 256.5 208.7 465.1 465.1 465.1s465.2-208.7 465.2-465.1C967.7 245.8 759 37.2 502.6 37.2z" class="st1"/>
    <path d="M350 288.8c-45.2 0-82-36.8-82-82s36.8-82 82-82 82 36.8 82 82-36.8 82-82 82zm0-140.5c-32.2 0-58.5 26.2-58.5 58.5s26.2 58.5 58.5 58.5 58.5-26.2 58.5-58.5c0-32.2-26.2-58.5-58.5-58.5zM651.7 328.5c-43.3 0-78.5-35.2-78.5-78.5s35.2-78.5 78.5-78.5 78.5 35.2 78.5 78.5c0 43.2-35.2 78.5-78.5 78.5zm0-133.5c-30.3 0-55 24.7-55 55s24.7 55 55 55 55-24.7 55-55c0-30.4-24.7-55-55-55zM503.5 526.5c-35.9 0-65.1-29.2-65.1-65.1s29.2-65.1 65.1-65.1 65.1 29.2 65.1 65.1c.1 35.9-29.1 65.1-65.1 65.1zm0-110.7c-25.2 0-45.6 20.5-45.6 45.6s20.5 45.6 45.6 45.6 45.6-20.5 45.6-45.6c.1-25.2-20.4-45.6-45.6-45.6zM514.3 852.7h-15c-24.4.3-37.2-.8-43.6-7.6-3.3-3.5-6-8.6-8.9-39.8-1.1-11.7-1.8-23.3-2.2-30.7-5.9-1-16.5-1.5-22.8-1.8-15.5-.7-23.1-1.2-28.4-4.3l-.7-.4-.7-.5c-6.8-5.5-8-15.5-4.8-41.2 1.9-14.8 5.3-34.7 10.2-59.1 7.9-39.1 17.2-77.7 18.2-81.9C424 539 453 539 462.5 539h.7l.7.1c12.3 1.5 19.1 7.6 25.2 13 1 .9 2 1.8 3.1 2.8 5.2 4 8.9 4.5 10 4.6l2.1-.5.5.5c1.2 0 5.2-.4 9.5-4.2l.2-.2c1.2-1 2.3-2 3.3-3 6-5.4 12.8-11.5 25.2-13l.7-.1h2.8c5.8-.2 15.4-.4 24.6 6.8 9.1 7.2 15.5 19.7 20 39.3.5 2.1 9.9 41 18 80.5 4.9 23.9 8.4 43.4 10.3 58 3.7 27.5 1.8 35.3-3.2 40.2-5.2 5.3-13.6 6.2-32 7.8-6.5.6-16.3 1.4-21.9 2.6-.3 7.4-1.1 19.1-2.2 30.9-2.9 31.1-5.6 36.3-8.9 39.8-5.7 6.3-16.7 7.8-36.9 7.8zm-10.8-23.6h4.5c5.1.1 19.1.2 25.5-.9 2.7-12.1 5.5-49.9 5.5-60.1v-.7c.8-12.6 15.3-15.4 20.1-16.3 6.8-1.3 15-2 23.1-2.7 4.8-.4 11.4-1 15.7-1.7 0-7.4-1.7-27.8-13-82.1-7.9-37.9-16.5-73.6-16.6-74v-.2c-4.1-18-9-24.1-11.6-26.1-2.4-1.9-4.9-1.9-9.5-1.8h-1.9c-4.3.6-6.5 2.4-11.7 7-1.2 1-2.4 2.1-3.7 3.2-10.9 9.7-22.2 10.2-26.3 10.1-4 .2-14.2-.5-26-9.7l-.4-.3c-1.3-1.1-2.6-2.2-3.8-3.3-5.2-4.6-7.3-6.4-11.6-7-7.9 0-18.3.9-22.9 27.3l-.2.8c-.1.4-8.9 36.6-16.8 75-11.1 54-12.9 75-12.8 82.8 4 .4 9.6.6 13.8.8 8.3.4 16.8.8 23.9 1.8 5 .8 20.3 3.1 21.1 16.2v.7c0 10.2 2.9 48 5.5 60.1 6.5 1.2 20.5 1 25.5.9 1.9.2 3.4.2 4.6.2zm32.5-1.5zm-126.5-74.9zm188.2-2.3zm-193.2-2.6z" class="st1"/>
  </g>
  <path d="M414.3 760.3c-2.2 30.9-4 42.5-5 46.8-2.4.8-7.8 2-19.4 2.7-11 .6-23.2.5-32.1.4-3 0-5.6-.1-7.7-.1-2.1 0-4.8 0-7.7.1-8.9.1-21.1.3-32.1-.4-11.6-.7-17-1.9-19.4-2.7-1.4-6.2-4.6-27.8-8.2-101-2.3-46.9-3.8-95.3-3.8-103.2v-.7c-1.2-20-19.2-29.7-32.3-36.8-2.1-1.2-4.2-2.2-6-3.3-11.8-10.3-12.9-34.5-12.3-43V376.5c1.1-24.1 7.3-40.1 18.7-47.6 9.3-6.2 21-6.1 29.6-6.1h.9c11 1.5 16.6 6.5 25.7 14.7 2 1.8 4.1 3.7 6.5 5.7l.4.3c18.9 14.9 34.9 15.5 40.1 15.2 5.3.3 23.1 0 40.5-15.6 2.3-2 4.3-3.8 6.4-5.6 9.1-8.2 14.7-13.2 25.7-14.7h.1c18.6-.1 46.8 0 49.1 53.7l.1 35.8h23.5l-.1-36.1v-.5c-1.4-32.1-11.4-54.4-29.9-66.4-15.5-10-32.5-10-42.8-10h-1.5l-.7.1c-18.9 2.2-28.8 11.2-39.2 20.6-1.9 1.7-3.9 3.5-6 5.3l-.2.2c-11.2 10-22.1 9.8-23.6 9.7l-1-.3-1.8.3c-1.4 0-10.9.1-23.9-10.1-2-1.7-4-3.5-5.8-5.2-10.5-9.5-20.4-18.4-39.3-20.6l-.7-.1h-2.3c-18.8-.1-68.6-.2-71.8 76.4V517.5c-.4 6.3-1.9 44.2 21.6 63.1l.7.5.7.4c2.5 1.5 5.1 2.9 7.6 4.3 11.3 6.1 19.4 10.9 20 17.3 0 9.9 1.6 60.8 4.1 109C264.9 814 269 818.4 273 822.7c8 8.6 26.2 10.7 58.3 10.7 3.7 0 7.6 0 11.6-.1 2.9 0 5.4-.1 7.5-.1s4.6 0 7.5.1c39.3.5 61-1 69.9-10.6 3.2-3.5 6.5-7 10.4-62.7h-23.9zM790.3 545.6V410.5c-1.3-30.7-10.9-52.1-28.6-63.5-14.9-9.6-31.2-9.7-41-9.6h-1.5l-.7.1c-18.1 2.2-28 11.1-37.6 19.7-1.8 1.6-3.7 3.3-5.7 5l-.2.2c-10.4 9.3-20.5 9.1-22 9.1l-.9-.4-1.9.4c-1.4 0-10.2 0-22.3-9.4-1.9-1.7-3.8-3.3-5.5-4.9-9.6-8.6-19.5-17.6-37.6-19.7l-.7-.1h-2.2c-18 0-65.7-.2-68.8 73.2l23.5 1c2.2-50.8 27.1-50.7 45.3-50.7h.8c10.3 1.4 15.5 6.1 24 13.8 1.9 1.7 3.9 3.5 6.2 5.4l.4.3c18.1 14.2 33.4 14.8 38.4 14.6 5.1.3 22.2 0 38.9-15 2.2-1.9 4.1-3.6 6-5.3 8.5-7.7 13.8-12.4 24-13.8 17.5 0 43.9 0 46.1 50.4v135.1c.2 6.9-1.5 27.1-12.2 37.5l-.3.3c-2.1 2.2-5.8 4.8-9.7 7.6-11.1 7.9-24.9 17.8-26 34v.7c0 7.7-1.4 52.6-3.6 97.8-3.4 68.6-6.4 89.5-7.7 95.7-2.3.7-7.5 1.8-18.1 2.4-10.3.6-21.9.4-30.3.3-2.8 0-5.3-.1-7.4-.1s-4.5 0-7.4.1c-8.4.1-19.9.2-30.3-.3-10.6-.6-15.8-1.7-18.1-2.4-1.1-5.1-3.3-19.9-5.9-62.5h-23.6c4.3 70.9 7.8 74.8 11.3 78.5 7.8 8.3 25.2 10.4 55.9 10.4 3.5 0 7.2 0 11-.1 2.7 0 5.1-.1 7.1-.1s4.4 0 7.1.1c37.6.5 58.2-1 66.9-10.3 3.8-4.1 7.8-8.4 12.8-105.5 2.3-45.8 3.8-94 3.9-103.6.6-5 9.2-11.1 16.1-16.1 4.8-3.4 9.3-6.6 12.9-10.3 19.7-19.3 19.3-51.3 19.2-54.9z" class="st1"/>
</svg>