<svg xmlns="http://www.w3.org/2000/svg" xml:space="preserve" style="enable-background:new 0 0 96 96" viewBox="0 0 96 96">
  <style>
    .st1{fill:currentColor}
  </style>
  <g>
    <path d="M48 95.5C21.81 95.5.5 74.19.5 48S21.81.5 48 .5 95.5 21.81 95.5 48 74.19 95.5 48 95.5zm0-91.76C23.59 3.74 3.74 23.59 3.74 48 3.74 72.41 23.6 92.26 48 92.26S92.26 72.41 92.26 48C92.26 23.59 72.41 3.74 48 3.74z" class="st1"/>
    <path d="M55.56 71.35c0-1.21-.47-2.35-1.33-3.2l-3.59-3.59c.68 1.51 1.16 2.6 1.16 2.6l-.84.82 1.72 1.72c.44.44.68 1.03.68 1.65a2.322 2.322 0 0 1-2.33 2.33c-.62 0-1.21-.24-1.65-.68l-1.76-1.76-1.52 1.48-.18-.07 1.9 1.9c.86.86 1.99 1.33 3.2 1.33 1.21 0 2.35-.47 3.2-1.33.87-.85 1.34-1.99 1.34-3.2" class="st1"/>
    <path d="M43.68 30.6c.85-.78 1.85-1.67 2.71-2.37l-.12-.15c-.48-.53-.72-.77-1.04-1.08l-.36-.36c-6.69-6.69-17.46-6.78-24.03-.22-3.22 3.22-4.99 7.5-4.99 12.06s1.77 8.85 4.99 12.06c.29.29 2.1 2.16 2.98 3.06l.64.66c.12.12.25.22.38.31l1.79-1.59c-.38-.16-.59-.25-.6-.25l-.63-.65c-.94-.97-2.69-2.78-3-3.09-2.8-2.8-4.35-6.53-4.35-10.51 0-3.97 1.54-7.71 4.35-10.51 5.71-5.7 15.09-5.61 20.91.22l.38.38c.3.3.51.5.94.98l-.13.09c-.13.09-.26.18-.38.26-.23.18-.38.43-.44.7m29.59 27.51c0-1.27-.49-2.46-1.39-3.35-.1-.1-10.89-10.84-19.12-19.58-.94.68-2.06 1.49-3.04 2.21.15-.04.3-.11.43-.22l.82-.69c8.27 8.79 19.22 19.7 19.36 19.84.48.48.74 1.12.74 1.8 0 .68-.26 1.32-.74 1.8-.95.95-2.47.99-3.47.12l-.12-.12-8.85-8.85a.435.435 0 0 1-.06-.07l-.54-.54c-.43-.43-1.13-.43-1.55 0-.43.43-.43 1.12 0 1.55l9.45 9.46c.04.04.08.08.13.12.41.46.63 1.05.63 1.67 0 .68-.26 1.32-.75 1.8-.46.46-1.11.72-1.8.72-.63 0-1.23-.22-1.68-.61-.02-.02-.04-.04-.05-.06-.03-.03-.07-.08-.12-.12l-.77-.77c-2.87-2.87-5.74-5.74-8.61-8.62-.43-.43-1.13-.43-1.56 0-.43.43-.43 1.13 0 1.56l9.44 9.45.12.12c.41.46.63 1.05.63 1.68 0 .68-.26 1.32-.75 1.8-.96.97-2.56.99-3.55.05-.02-.01-.03-.03-.05-.04l-3.63-3.54c-.5.46-1.05.96-1.63 1.49l3.72 3.63c.03.03.07.06.1.09.91.85 2.08 1.27 3.24 1.27 1.22 0 2.44-.46 3.35-1.38.9-.89 1.39-2.08 1.39-3.35 0-.15-.01-.3-.02-.44.14.01.28.02.42.02 1.26 0 2.49-.5 3.35-1.37a4.678 4.678 0 0 0 1.37-3.78c1.35.12 2.74-.34 3.77-1.37.89-.92 1.39-2.11 1.39-3.38" class="st1"/>
    <path d="M73.26 26.19c-8.78-6.94-13.88-5.58-17.25-4.69l-.39.11c-2.48.81-6.31 3.38-9.82 6.01-.03-.02-9.85 7.46-10.56 9.11-.75 1.75.42 4.12 3.41 5.45 5.74 2.16 12.87-5.19 12.93-5.24 2.44 1.24 10.05 4.2 16.56-3.05.4-.45.36-1.14-.08-1.55-.45-.4-1.14-.37-1.55.08-6.56 7.31-14.2 2.45-14.52 2.24-.44-.29-1.02-.22-1.39.16-1.11 1.16-4.48 4.33-6.71 5.12-1.35.41-3.87.88-5.55-.52-.04-.03-.08-.06-.13-.09-.73-.44-.76-.82-.77-.95-.07-.81.93-1.94 1.43-2.37.12-.11 12.34-10.66 17.37-12.3l.34-.09c3.13-.83 7.4-1.97 15.26 4.23 8.56 8.08 6.34 14.69 4.21 17.96-1.27 2.22-5.73 6.85-5.77 6.9-.42.44-.41 1.13.03 1.55.21.2.49.31.76.31.29 0 .57-.11.79-.34.19-.2 4.69-4.87 6.07-7.28 1.96-3.06 5.48-11.18-4.67-20.76M41.96 50c-.62 0-1.21.24-1.65.68L28.25 62.74c-.44.44-.68 1.03-.68 1.65a2.324 2.324 0 0 0 3.97 1.65L43.6 53.98c.44-.44.68-1.03.68-1.65A2.322 2.322 0 0 0 41.96 50M29.9 68.91c-1.16 0-2.32-.44-3.2-1.32a4.485 4.485 0 0 1-1.33-3.2c0-1.21.47-2.35 1.33-3.2l12.06-12.06c.86-.86 1.99-1.33 3.2-1.33 1.21 0 2.35.47 3.2 1.33.86.86 1.33 1.99 1.33 3.2 0 1.21-.47 2.35-1.33 3.2L33.1 67.59c-.88.88-2.04 1.32-3.2 1.32" class="st1"/>
    <path d="M34.89 47.34c-.6 0-1.19.23-1.65.68l-9.85 9.85c-.44.44-.68 1.03-.68 1.65a2.324 2.324 0 0 0 3.97 1.65l9.85-9.85c.44-.44.68-1.03.68-1.65a2.322 2.322 0 0 0-2.32-2.33m-9.85 16.71c-1.16 0-2.32-.44-3.2-1.32a4.485 4.485 0 0 1-1.33-3.2c0-1.21.47-2.35 1.33-3.2l9.85-9.85a4.533 4.533 0 0 1 6.41 0c.86.86 1.33 1.99 1.33 3.2 0 1.21-.47 2.35-1.33 3.2l-9.85 9.85c-.89.88-2.05 1.32-3.21 1.32M44.61 57.07c-.6 0-1.19.23-1.65.68l-9.85 9.85c-.44.44-.68 1.03-.68 1.65a2.324 2.324 0 0 0 3.97 1.65l9.85-9.85c.44-.44.68-1.03.68-1.65 0-.62-.24-1.21-.68-1.65-.45-.46-1.04-.68-1.64-.68m-9.85 16.7c-1.16 0-2.32-.44-3.2-1.32a4.485 4.485 0 0 1-1.33-3.2c0-1.21.47-2.35 1.33-3.2l9.85-9.85a4.533 4.533 0 0 1 6.41 0c.86.86 1.33 1.99 1.33 3.2 0 1.21-.47 2.35-1.33 3.2l-9.85 9.85c-.89.88-2.05 1.32-3.21 1.32" class="st1"/>
    <path d="M47.98 63.37c-.6 0-1.19.23-1.65.68l-8.38 8.38c-.44.44-.68 1.03-.68 1.65a2.324 2.324 0 0 0 3.97 1.65l8.38-8.38c.44-.44.68-1.03.68-1.65a2.322 2.322 0 0 0-2.32-2.33m-8.39 15.24c-1.16 0-2.32-.44-3.2-1.32a4.485 4.485 0 0 1-1.33-3.2c0-1.21.47-2.35 1.33-3.2l8.38-8.38a4.533 4.533 0 0 1 6.41 0c.86.86 1.33 1.99 1.33 3.2 0 1.21-.47 2.35-1.33 3.2l-8.38 8.38c-.89.88-2.05 1.32-3.21 1.32" class="st1"/>
  </g>
</svg>