<svg xmlns="http://www.w3.org/2000/svg" xml:space="preserve" style="enable-background:new 0 0 1000 1000" viewBox="0 0 1000 1000">
  <style>
    .st0{fill:currentColor}
  </style>
  <g>
    <g>
      <path d="M499.7 990.2C229.4 990.2 9.6 770.4 9.6 500.1 9.6 229.9 229.4 10 499.7 10s490.1 219.9 490.1 490.1c0 270.2-219.9 490.1-490.1 490.1zm0-946.8C247.8 43.4 43 248.3 43 500.1s204.9 456.7 456.7 456.7 456.7-204.9 456.7-456.7S751.5 43.4 499.7 43.4z" class="st0"/>
      <path d="M677.5 298.3h-74.9v-75.9c5.1 2.2 8.4 5.4 8.4 5.4l66.5 70.5zm-361.7-77.8h264.4v100.1h107.2V776c0 1.6 0 3.5-3.9 3.7H315.6c-1.6 0-3.5 0-3.7-3.9V224.2c0-1.5 0-3.5 3.9-3.7m394 555.5V319.3c0-2-.4-19.8-13.3-33.4l-69.2-73.4c-1.4-1.5-14.1-14.4-33.3-14.4H315.6c-10.5 0-26.1 6.9-26.1 26.1V776c0 10.5 7 26.1 26.1 26.1h368c10.6 0 26.2-7 26.2-26.1" class="st0"/>
      <path d="M683.7 805.1h-368c-21.4 0-29.2-17.4-29.2-29.2V224.2c0-21.4 17.4-29.2 29.2-29.2H594c20.5 0 34 13.7 35.5 15.3l69.2 73.3c13.7 14.5 14.1 33.4 14.1 35.5V776c0 21.4-17.4 29.1-29.1 29.1zM315.6 201.2c-9.3 0-23 6.1-23 23V776c0 9.3 6.1 23 23 23h368c9.3 0 23-6.1 23-23V319.3c0-1.9-.3-18.5-12.5-31.3L625 214.6c-1.3-1.4-13.2-13.4-31-13.4H315.6zm368 581.6h-368c-4.3 0-6.6-2.3-6.8-6.8V224.2c0-4.3 2.3-6.6 6.8-6.8h267.6v100.1h107.2V776c.1 4.3-2.2 6.6-6.8 6.8zm-368.5-6.2h368.3c.4 0 .7-.1.9-.1V323.7H577.1V223.6H315.9c-.4 0-.7.1-.9.1v552c0 .5 0 .8.1.9zm369.5-475.2h-85.1v-83.6l4.3 1.8c5.7 2.4 9.4 6.1 9.4 6.1l71.4 75.7zm-79-6.2h64.7L608.8 230c-.2-.2-1.4-1.3-3.2-2.5v67.7z" class="st0"/>
      <path d="M629.4 454H369.9c-6.8 0-12.2-5.5-12.2-12.2 0-6.8 5.5-12.2 12.2-12.2h259.5c6.8 0 12.2 5.5 12.2 12.2.1 6.7-5.4 12.2-12.2 12.2zM629.4 545.2H369.9c-6.8 0-12.2-5.5-12.2-12.2 0-6.8 5.5-12.2 12.2-12.2h259.5c6.8 0 12.2 5.5 12.2 12.2.1 6.7-5.4 12.2-12.2 12.2zM545.6 636.3H369.9c-6.8 0-12.2-5.5-12.2-12.2 0-6.8 5.5-12.2 12.2-12.2h175.7c6.8 0 12.2 5.5 12.2 12.2 0 6.7-5.5 12.2-12.2 12.2z" class="st0"/>
    </g>
  </g>
</svg>