<svg xmlns="http://www.w3.org/2000/svg" xml:space="preserve" style="enable-background:new 0 0 1000 1000" viewBox="0 0 1000 1000">
  <style>
    .st0{fill:currentColor}
  </style>
  <path d="M497 30c63.46 0 125.01 12.42 182.94 36.92 55.96 23.67 106.23 57.56 149.4 100.74 43.17 43.17 77.07 93.44 100.74 149.4C954.58 374.99 967 436.54 967 500s-12.42 125.01-36.92 182.94c-23.67 55.96-57.56 106.23-100.74 149.4-43.17 43.17-93.44 77.07-149.4 100.74C622.01 957.58 560.46 970 497 970s-125.01-12.42-182.94-36.92c-55.96-23.67-106.23-57.56-149.4-100.74-43.17-43.17-77.07-93.44-100.74-149.4C39.42 625.01 27 563.46 27 500s12.42-125.01 36.92-182.94c23.67-55.96 57.56-106.23 100.74-149.4 43.17-43.17 93.44-77.07 149.4-100.74C371.99 42.42 433.54 30 497 30m0-30C220.86 0-3 223.86-3 500s223.86 500 500 500 500-223.86 500-500S773.14 0 497 0z" class="st0"/>
  <g>
    <path d="M285 179.9c-5.3.15-11.59 2.27-11.59 11.49v603.27c.14 5.16 2.24 11.49 11.49 11.49h418.8c5.17-.14 11.49-2.24 11.49-11.49V191.39c-.14-5.16-2.24-11.49-11.49-11.49H285zM703.7 830H284.9c-25.93 0-35.34-21.14-35.34-35.34V191.39c0-25.93 21.14-35.34 35.34-35.34h418.8c25.93 0 35.34 21.14 35.34 35.34v603.27c.01 25.93-21.13 35.34-35.34 35.34" class="st0"/>
    <path d="M622.05 305.01h-255.5c-8.27 0-14.97-6.7-14.97-14.97s6.7-14.97 14.97-14.97h255.5c8.27 0 14.97 6.7 14.97 14.97 0 8.26-6.7 14.97-14.97 14.97M622.05 408.3h-255.5c-8.27 0-14.97-6.7-14.97-14.97s6.7-14.97 14.97-14.97h255.5c8.27 0 14.97 6.7 14.97 14.97 0 8.26-6.7 14.97-14.97 14.97M622.05 511.58h-255.5c-8.27 0-14.97-6.7-14.97-14.97s6.7-14.97 14.97-14.97h255.5c8.27 0 14.97 6.7 14.97 14.97s-6.7 14.97-14.97 14.97" class="st0"/>
  </g>
</svg>