<svg xmlns="http://www.w3.org/2000/svg" xml:space="preserve" id="svg2" x="0" y="0" style="enable-background:new 0 0 555.6 113.4" version="1.1" viewBox="0 0 555.6 113.4"><style>.st0{fill:#001631}</style><path id="path20" d="M7.7 28.4 2 28V17.5h30.2v10.3l-3.4.3c-1.8.3-2.6.7-2.6 3.1v14.9h23.2V28.3l-5.2-.4V17.5h29.6v10.2l-3.2.3c-2 .3-2.6.8-2.6 3.3v46.5l5.6.4v10.5H43.5V78.4l3.4-.3c2-.3 2.6-.9 2.6-3.4V59.2H26.2v18.7l5.6.4v10.4H1.9V78.5l3.2-.3c2.1-.3 2.6-.9 2.6-3.4V28.4z" class="st0"/><path id="path24" d="M145.5 66.8c0 14.5-12.8 23.4-29.6 23.4-18.8 0-30-7.6-30-24.9V28.4l-5.6-.4V17.5h30.2v10.3l-3.5.3c-1.8.3-2.6.7-2.6 3.1v34.7c0 8.6 6 11 12.7 11 6.4 0 11.6-3.3 11.6-10.6v-38l-5-.4V17.5h27.8v10.2l-3.2.3c-2 .3-2.7.8-2.7 3.2v35.6z" class="st0"/><path id="path28" d="m204.1 45.9 14.1-15.2c1-1 2.3-2.2 4.1-2.6l2.8-.5V17.5H198v10.3l3.7.3L181 50V30.9c0-1.8.8-2.8 2.5-2.9l2.7-.2V17.5H157V28l5.8.4v46.8c0 1.8-.9 2.8-2.5 2.9l-3.3.4v10.2h28V78.3l-4-.3v-9l10.4-10.7 8.7 16.9c.8 1.4.8 2.5-1 2.8l-3.3.4v10.2H228V78.2l-7.6-.9-16.3-31.4z" class="st0"/><path id="path32" d="M399.4 27.2c0-4.6-.7-8.1-1.2-9.7h-1.5L383 20.3v3.1c5.8.2 7.5 1.2 7.5 8.3v47.1c0 5.6-1.3 6.5-6.9 6.9V89h22.7v-3.3c-6.2-.3-6.9-1.4-6.9-6.2V52.8c3.9-3.8 7.7-6.2 13.5-6.2 4.7 0 7.2 2.3 7.2 8v24.9c0 4.8-.7 5.9-6.9 6.2V89h22.2v-3.3c-5.2-.4-6.4-1.3-6.4-6.9v-26c0-8.5-5.4-13.1-13.2-13.1-7.5 0-12 3.6-16.4 8V27.2zm64 61.9v-3.3c-6.2-.3-6.9-1.3-6.9-6.9V39.6H455l-14.6 3.9v2.9c5.8.2 7.2 1.2 7.2 8.3v24c0 5.6-1.3 6.5-6.9 6.9v3.3h22.7zm-5.9-63.2c0-3.4-2.6-6.2-6.1-6.2-3.4 0-6.1 2.7-6.1 6.2 0 3.4 2.6 6.2 6.1 6.2 3.5 0 6.1-2.8 6.1-6.2m27.5 1.3c0-3.9-.5-7.7-1.2-9.7h-1.5l-14.1 2.8v3.1c6.2.2 7.8 1.2 7.8 8.3v47.1c0 5.6-1.3 6.5-7.3 6.9V89h23.4v-3.3c-6.4-.3-7.3-1.4-7.3-7.2V27.2zm28.4 13.7v-9.3c0-6.8 2.2-9.3 5.9-9.3 2.6 0 4 1.9 4.5 5.1h6v-8.1c-2.4-1-5.9-1.8-9.6-1.8-9.2 0-15.6 5.2-15.6 14.2v9.2l-6.2 2.3v3.1h6.2v32.6c0 5.6-1.3 6.5-6.9 6.9v3.3h24.5v-3.3c-7.7-.3-8.7-1.6-8.7-6.9V46.3h18.6v30.9c0 9.8 4.5 13.2 11.9 13.2 3.3 0 6.5-.9 9.7-2.6l-.8-3.5c-2.1.7-3.9 1-5.6 1-4.9 0-6.3-1.8-6.3-9.4V46.3h10.4l1.4-5.4h-11.7c0-5 .4-11.2.9-14.7l-4.6 1.2c-2.3 3.6-3.7 8.9-4.6 13.5h-19.4z" class="st0"/><path id="path36" d="M363.8 51.5c3.8-5.8 10.5-21.4-8.9-39.7-16.8-13.3-26.5-10.7-33-9l-.7.2c-4.7 1.5-12 6.4-18.7 11.5l-1.1-1.1-.7-.7c-6.2-6.2-14.4-9.6-23-9.7-8.8-.1-16.8 3.2-22.9 9.3-6.2 6.2-9.5 14.3-9.5 23.1 0 8.7 3.4 16.9 9.5 23.1l1.1 1.1 3.9 3.9 1.3 1.6-4.5 4.5c-1.6 1.6-2.5 3.8-2.5 6.1s.9 4.5 2.5 6.1c1.6 1.6 3.8 2.5 6.1 2.5h.7v.7c0 2.3.9 4.5 2.5 6.1 1.6 1.6 3.8 2.5 6.1 2.5h.7v.7c0 2.3.9 4.5 2.5 6.1 1.6 1.6 3.8 2.5 6.1 2.5h.6v.6c0 2.3.9 4.5 2.5 6.1 1.6 1.6 3.8 2.5 6.1 2.5s4.5-.9 6.1-2.5l7.4-7.4 2.2 2.2c1.6 1.6 3.8 2.5 6.1 2.5s4.5-.9 6.1-2.5c1.2-1.2 2-2.7 2.4-4.4 1.6 1.1 3.4 1.7 5.3 1.7 2.3 0 4.7-.9 6.4-2.6 1.7-1.7 2.7-4 2.7-6.4v-.8c2.7.2 5.4-.7 7.2-2.6 1.7-1.7 2.7-4 2.7-6.4v-.8c2.6.2 5.2-.6 7.2-2.6 1.7-1.7 2.7-4 2.7-6.4 0-2.4-.9-4.7-2.7-6.4l-.6-.6c.2-.1.4-.2.6-.4.3-.7 8.9-9.6 11.5-14.2" style="fill:#ffed00"/><path id="path40" d="M349.3 76.2c-1.8 1.8-4.7 1.9-6.6.2l-.2-.2-18.1-18.1c-.8-.8-2.2-.8-3 0-.8.8-.8 2.2 0 3l18.1 18.1.2.2c.8.9 1.2 2 1.2 3.2 0 1.3-.5 2.5-1.4 3.4-.9.9-2.1 1.4-3.4 1.4-1.2 0-2.4-.4-3.2-1.2-.1-.1-.1-.2-.2-.2l-18.2-18c-.8-.8-2.2-.8-3 0-.8.8-.8 2.2 0 3l18.1 18.1.2.2c.8.9 1.2 2 1.2 3.2 0 1.3-.5 2.5-1.4 3.4-1.8 1.9-4.9 1.9-6.8.1l-.1-.1-7.6-7.4c.1-.4.1-.8.1-1.2 0-2.3-.9-4.5-2.5-6.1-1.3-1.3-2.9-2.1-4.7-2.4 1.4-3.2.8-7-1.8-9.7-1.2-1.2-2.7-2-4.2-2.3 1.1-1.5 1.7-3.2 1.7-5.1 0-2.3-.9-4.5-2.5-6.1-1.6-1.6-3.8-2.5-6.1-2.5-1.9 0-3.6.6-5.1 1.7-.3-1.5-1.1-3-2.3-4.2-3.4-3.4-8.9-3.4-12.3 0L264 61.9l-1.2-1.4-.1-.1-4-4-1.1-1.1c-5.4-5.4-8.3-12.5-8.3-20.1 0-7.6 3-14.7 8.3-20.1 5.3-5.3 12.3-8.1 19.9-8.1 7.6.1 14.7 3.1 20.1 8.5l.7.7c.2.2.5.4.7.7-5.5 4.2-15.9 12.6-16.9 14.9-1.4 3.3.8 7.9 6.5 10.4 10.3 3.9 22.9-8.2 24.5-9.8 15.8 16.7 35.8 36.7 36 36.9.9.9 1.4 2.1 1.4 3.4.2 1.4-.3 2.6-1.2 3.5m-33.7 25.1c-1.7 1.7-4.6 1.7-6.3 0l-2.2-2.2 5.6-5.6c.2-.2.4-.5.6-.7l2.2 2.2c.8.8 1.3 2 1.3 3.2.1 1.1-.4 2.2-1.2 3.1m-21.9 5.2c-1.7 1.7-4.6 1.7-6.3 0-.8-.8-1.3-2-1.3-3.1s.4-2.1 1.1-2.9c.1-.1.2-.1.2-.2l16.4-16.4c.8-.6 1.8-1 2.8-1 1.2 0 2.3.5 3.2 1.3.8.8 1.3 2 1.3 3.2 0 1.2-.5 2.3-1.3 3.2l-16.1 15.9zm-9.5-9.1c-1.7 1.5-4.5 1.4-6.1-.2-.8-.8-1.3-2-1.3-3.1 0-1.2.5-2.3 1.3-3.2L297 72.1c.9-.9 2-1.3 3.1-1.3s2.3.4 3.2 1.3c1.7 1.7 1.7 4.6 0 6.3l-2.2 2.2-.6.6-16 16c-.1.1-.2.2-.3.2m-9-9.4c-1.7 1.7-4.6 1.7-6.3 0-.8-.8-1.3-2-1.3-3.1 0-1.2.5-2.3 1.3-3.2L292 58.6c.8-.8 2-1.3 3.2-1.3 1.2 0 2.3.5 3.2 1.3.8.8 1.3 2 1.3 3.1s-.5 2.3-1.3 3.2L275.2 88zm-9.3-9.3c-1.7 1.7-4.6 1.7-6.3 0-.8-.8-1.3-2-1.3-3.2 0-1.2.5-2.3 1.3-3.2l18.8-18.8c.9-.9 2-1.3 3.2-1.3 1.1 0 2.3.4 3.2 1.3 1.7 1.7 1.7 4.6 0 6.3l-18.9 18.9zM322.4 7l.6-.2c6-1.6 14.2-3.8 29.2 8.1 16.4 15.5 12.1 28.1 8.1 34.4-2.4 4.3-11 13.1-11 13.2-.1.2-.3.3-.3.5-5.5-5.5-16.8-16.9-27.4-27.9 6.6 1.2 15.5.4 23.6-8.6.8-.9.7-2.2-.2-3-.9-.8-2.2-.7-3 .2-12.5 14-27.2 4.7-27.8 4.3-.8-.5-2-.4-2.7.3-2.1 2.2-8.6 8.3-12.8 9.8-2.6.8-7.4 1.7-10.6-1-.1-.1-.2-.1-.3-.2-1.4-.8-1.4-1.6-1.5-1.8-.1-1.5 1.8-3.7 2.7-4.5.4-.3 23.7-20.5 33.4-23.6m41.4 44.5c3.8-5.8 10.5-21.4-8.9-39.7-16.8-13.3-26.5-10.7-33-9l-.7.2c-4.7 1.5-12 6.4-18.7 11.5l-1.1-1.1-.7-.7c-6.2-6.2-14.4-9.6-23-9.7-8.8-.1-16.8 3.2-22.9 9.3-6.2 6.2-9.5 14.3-9.5 23.1 0 8.7 3.4 16.9 9.5 23.1l1.1 1.1 3.9 3.9 1.3 1.6-4.5 4.5c-1.6 1.6-2.5 3.8-2.5 6.1s.9 4.5 2.5 6.1c1.6 1.6 3.8 2.5 6.1 2.5h.7v.7c0 2.3.9 4.5 2.5 6.1 1.6 1.6 3.8 2.5 6.1 2.5h.7v.7c0 2.3.9 4.5 2.5 6.1 1.6 1.6 3.8 2.5 6.1 2.5h.6v.6c0 2.3.9 4.5 2.5 6.1 1.6 1.6 3.8 2.5 6.1 2.5s4.5-.9 6.1-2.5l7.4-7.4 2.2 2.2c1.6 1.6 3.8 2.5 6.1 2.5s4.5-.9 6.1-2.5c1.2-1.2 2-2.7 2.4-4.4 1.6 1.1 3.4 1.7 5.3 1.7 2.3 0 4.7-.9 6.4-2.6 1.7-1.7 2.7-4 2.7-6.4v-.8c2.7.2 5.4-.7 7.2-2.6 1.7-1.7 2.7-4 2.7-6.4v-.8c2.6.2 5.2-.6 7.2-2.6 1.7-1.7 2.7-4 2.7-6.4s-.9-4.7-2.7-6.4l-.6-.6c.2-.1.4-.2.6-.4.3-.7 8.9-9.6 11.5-14.2" class="st0"/></svg>