<?xml version="1.0" encoding="utf-8"?>
<!-- Generator: Adobe Illustrator 26.0.3, SVG Export Plug-In . SVG Version: 6.00 Build 0)  -->
<svg version="1.1" id="Ebene_1" xmlns="http://www.w3.org/2000/svg" xmlns:xlink="http://www.w3.org/1999/xlink" x="0px" y="0px"
	 viewBox="0 0 1000 1000" style="enable-background:new 0 0 1000 1000;" xml:space="preserve">
<style type="text/css">
	.st0{fill:#4E7380;}
	.st1{fill:#4E7380;stroke:#4E7380;stroke-width:5;stroke-miterlimit:10;}
</style>
<g id="Ebene_1_00000109718236068987461980000012855333993076538001_">
	<g>
		<path class="st0" d="M502.6,994.7C231,994.7,10.1,773.8,10.1,502.3C10.1,230.8,231,9.9,502.6,9.9S995,230.8,995,502.3
			C995,773.8,774.1,994.7,502.6,994.7z M502.6,37.2c-256.5,0-465.1,208.7-465.1,465.1c0,256.5,208.7,465.1,465.1,465.1
			s465.2-208.7,465.2-465.1C967.7,245.8,759,37.2,502.6,37.2z"/>
		<path class="st1" d="M350,288.8c-45.2,0-82-36.8-82-82c0-45.2,36.8-82,82-82s82,36.8,82,82C432,252,395.2,288.8,350,288.8z
			 M350,148.3c-32.2,0-58.5,26.2-58.5,58.5s26.2,58.5,58.5,58.5s58.5-26.2,58.5-58.5C408.5,174.6,382.3,148.3,350,148.3z"/>
		<path class="st1" d="M651.7,328.5c-43.3,0-78.5-35.2-78.5-78.5c0-43.3,35.2-78.5,78.5-78.5c43.3,0,78.5,35.2,78.5,78.5
			C730.2,293.2,695,328.5,651.7,328.5z M651.7,195c-30.3,0-55,24.7-55,55s24.7,55,55,55s55-24.7,55-55
			C706.7,219.6,682,195,651.7,195z"/>
		<path class="st1" d="M503.5,526.5c-35.9,0-65.1-29.2-65.1-65.1s29.2-65.1,65.1-65.1s65.1,29.2,65.1,65.1
			C568.7,497.3,539.5,526.5,503.5,526.5z M503.5,415.8c-25.2,0-45.6,20.5-45.6,45.6s20.5,45.6,45.6,45.6s45.6-20.5,45.6-45.6
			C549.2,436.2,528.7,415.8,503.5,415.8z"/>
		<path class="st1" d="M514.3,852.7c-2.1,0-4.3,0-6.6,0c-1.6,0-3,0-4.2,0s-2.6,0-4.2,0c-24.4,0.3-37.2-0.8-43.6-7.6
			c-3.3-3.5-6-8.6-8.9-39.8c-1.1-11.7-1.8-23.3-2.2-30.7c-5.9-1-16.5-1.5-22.8-1.8c-15.5-0.7-23.1-1.2-28.4-4.3l-0.7-0.4l-0.7-0.5
			c-6.8-5.5-8-15.5-4.8-41.2c1.9-14.8,5.3-34.7,10.2-59.1c7.9-39.1,17.2-77.7,18.2-81.9C424,539,453,539,462.5,539h0.7l0.7,0.1
			c12.3,1.5,19.1,7.6,25.2,13c1,0.9,2,1.8,3.1,2.8c5.2,4,8.9,4.5,10,4.6l2.1-0.5l0.5,0.5c1.2,0,5.2-0.4,9.5-4.2l0.2-0.2
			c1.2-1,2.3-2,3.3-3c6-5.4,12.8-11.5,25.2-13l0.7-0.1h0.7c0.7,0,1.4,0,2.1,0c5.8-0.2,15.4-0.4,24.6,6.8c9.1,7.2,15.5,19.7,20,39.3
			c0.5,2.1,9.9,41,18,80.5c4.9,23.9,8.4,43.4,10.3,58c3.7,27.5,1.8,35.3-3.2,40.2c-5.2,5.3-13.6,6.2-32,7.8
			c-6.5,0.6-16.3,1.4-21.9,2.6c-0.3,7.4-1.1,19.1-2.2,30.9c-2.9,31.1-5.6,36.3-8.9,39.8C545.5,851.2,534.5,852.7,514.3,852.7z
			 M503.5,829.1c1.2,0,2.8,0,4.5,0c5.1,0.1,19.1,0.2,25.5-0.9c2.7-12.1,5.5-49.9,5.5-60.1l0-0.7c0.8-12.6,15.3-15.4,20.1-16.3
			c6.8-1.3,15-2,23.1-2.7c4.8-0.4,11.4-1,15.7-1.7c0-7.4-1.7-27.8-13-82.1c-7.9-37.9-16.5-73.6-16.6-74l0-0.2
			c-4.1-18-9-24.1-11.6-26.1c-2.4-1.9-4.9-1.9-9.5-1.8c-0.6,0-1.2,0-1.9,0c-4.3,0.6-6.5,2.4-11.7,7c-1.2,1-2.4,2.1-3.7,3.2
			c-10.9,9.7-22.2,10.2-26.3,10.1c-4,0.2-14.2-0.5-26-9.7l-0.4-0.3c-1.3-1.1-2.6-2.2-3.8-3.3c-5.2-4.6-7.3-6.4-11.6-7
			c-7.9,0-18.3,0.9-22.9,27.3l-0.2,0.8c-0.1,0.4-8.9,36.6-16.8,75c-11.1,54-12.9,75-12.8,82.8c4,0.4,9.6,0.6,13.8,0.8
			c8.3,0.4,16.8,0.8,23.9,1.8c5,0.8,20.3,3.1,21.1,16.2l0,0.7c0,10.2,2.9,48,5.5,60.1c6.5,1.2,20.5,1,25.5,0.9
			C500.8,829.1,502.3,829.1,503.5,829.1z M536,827.6L536,827.6L536,827.6z M409.5,752.7L409.5,752.7L409.5,752.7z M597.7,750.4
			L597.7,750.4L597.7,750.4z M404.5,747.8L404.5,747.8L404.5,747.8z"/>
	</g>
</g>
<path class="st1" d="M414.3,760.3c-2.2,30.9-4,42.5-5,46.8c-2.4,0.8-7.8,2-19.4,2.7c-11,0.6-23.2,0.5-32.1,0.4c-3,0-5.6-0.1-7.7-0.1
	c-2.1,0-4.8,0-7.7,0.1c-8.9,0.1-21.1,0.3-32.1-0.4c-11.6-0.7-17-1.9-19.4-2.7c-1.4-6.2-4.6-27.8-8.2-101
	c-2.3-46.9-3.8-95.3-3.8-103.2l0-0.7c-1.2-20-19.2-29.7-32.3-36.8c-2.1-1.2-4.2-2.2-6-3.3c-11.8-10.3-12.9-34.5-12.3-43l0-0.5V376.5
	c1.1-24.1,7.3-40.1,18.7-47.6c9.3-6.2,21-6.1,29.6-6.1h0.9c11,1.5,16.6,6.5,25.7,14.7c2,1.8,4.1,3.7,6.5,5.7l0.4,0.3
	c18.9,14.9,34.9,15.5,40.1,15.2c5.3,0.3,23.1,0,40.5-15.6c2.3-2,4.3-3.8,6.4-5.6c9.1-8.2,14.7-13.2,25.7-14.7h0.1
	c18.6-0.1,46.8,0,49.1,53.7l0.1,35.8l23.5,0l-0.1-36.1l0-0.5c-1.4-32.1-11.4-54.4-29.9-66.4c-15.5-10-32.5-10-42.8-10h-1.5l-0.7,0.1
	c-18.9,2.2-28.8,11.2-39.2,20.6c-1.9,1.7-3.9,3.5-6,5.3l-0.2,0.2c-11.2,10-22.1,9.8-23.6,9.7l-1-0.3l-1.8,0.3
	c-1.4,0-10.9,0.1-23.9-10.1c-2-1.7-4-3.5-5.8-5.2c-10.5-9.5-20.4-18.4-39.3-20.6l-0.7-0.1h-2.3c-18.8-0.1-68.6-0.2-71.8,76.4l0,0.2
	v141.7c-0.4,6.3-1.9,44.2,21.6,63.1l0.7,0.5l0.7,0.4c2.5,1.5,5.1,2.9,7.6,4.3c11.3,6.1,19.4,10.9,20,17.3c0,9.9,1.6,60.8,4.1,109
	c5.2,101.9,9.3,106.3,13.3,110.6c8,8.6,26.2,10.7,58.3,10.7c3.7,0,7.6,0,11.6-0.1c2.9,0,5.4-0.1,7.5-0.1s4.6,0,7.5,0.1
	c39.3,0.5,61-1,69.9-10.6c3.2-3.5,6.5-7,10.4-62.7H414.3z"/>
<path class="st1" d="M790.3,545.6V411l0-0.5c-1.3-30.7-10.9-52.1-28.6-63.5c-14.9-9.6-31.2-9.7-41-9.6h-1.5l-0.7,0.1
	c-18.1,2.2-28,11.1-37.6,19.7c-1.8,1.6-3.7,3.3-5.7,5l-0.2,0.2c-10.4,9.3-20.5,9.1-22,9.1l-0.9-0.4l-1.9,0.4c-1.4,0-10.2,0-22.3-9.4
	c-1.9-1.7-3.8-3.3-5.5-4.9c-9.6-8.6-19.5-17.6-37.6-19.7l-0.7-0.1h-2.2c-18,0-65.7-0.2-68.8,73.2l23.5,1
	c2.2-50.8,27.1-50.7,45.3-50.7h0.8c10.3,1.4,15.5,6.1,24,13.8c1.9,1.7,3.9,3.5,6.2,5.4l0.4,0.3c18.1,14.2,33.4,14.8,38.4,14.6
	c5.1,0.3,22.2,0,38.9-15c2.2-1.9,4.1-3.6,6-5.3c8.5-7.7,13.8-12.4,24-13.8h0c17.5,0,43.9,0,46.1,50.4v134.6l0,0.5
	c0.2,6.9-1.5,27.1-12.2,37.5l-0.3,0.3c-2.1,2.2-5.8,4.8-9.7,7.6c-11.1,7.9-24.9,17.8-26,34l0,0.7c0,7.7-1.4,52.6-3.6,97.8
	c-3.4,68.6-6.4,89.5-7.7,95.7c-2.3,0.7-7.5,1.8-18.1,2.4c-10.3,0.6-21.9,0.4-30.3,0.3c-2.8,0-5.3-0.1-7.4-0.1s-4.5,0-7.4,0.1
	c-8.4,0.1-19.9,0.2-30.3-0.3c-10.6-0.6-15.8-1.7-18.1-2.4c-1.1-5.1-3.3-19.9-5.9-62.5h-23.6c4.3,70.9,7.8,74.8,11.3,78.5
	c7.8,8.3,25.2,10.4,55.9,10.4c3.5,0,7.2,0,11-0.1c2.7,0,5.1-0.1,7.1-0.1s4.4,0,7.1,0.1c37.6,0.5,58.2-1,66.9-10.3
	c3.8-4.1,7.8-8.4,12.8-105.5c2.3-45.8,3.8-94,3.9-103.6c0.6-5,9.2-11.1,16.1-16.1c4.8-3.4,9.3-6.6,12.9-10.3
	C790.8,581.2,790.4,549.2,790.3,545.6z"/>
</svg>
