<?xml version="1.0" encoding="utf-8"?>
<!-- Generator: Adobe Illustrator 26.0.3, SVG Export Plug-In . SVG Version: 6.00 Build 0)  -->
<svg version="1.1" xmlns="http://www.w3.org/2000/svg" xmlns:xlink="http://www.w3.org/1999/xlink" x="0px" y="0px"
	 viewBox="0 0 1000 1000" style="enable-background:new 0 0 1000 1000;" xml:space="preserve">
<style type="text/css">
	.st0{fill:#4E7380;}
</style>
<g id="Ebene_2">
</g>
<g id="Ebene_1">
	<g id="Ebene_2_00000069391234798384015740000011140994132475539077_">
	</g>
	<g id="Ebene_1_00000023263354723001513410000016155227657022229182_">
		<g>
			<path class="st0" d="M499.7,990.2C229.4,990.2,9.6,770.4,9.6,500.1C9.6,229.9,229.4,10,499.7,10s490.1,219.9,490.1,490.1
				C989.8,770.3,769.9,990.2,499.7,990.2z M499.7,43.4C247.8,43.4,43,248.3,43,500.1s204.9,456.7,456.7,456.7
				s456.7-204.9,456.7-456.7S751.5,43.4,499.7,43.4z"/>
		</g>
		<g>
			<path class="st0" d="M677.5,298.3h-74.9v-75.9c5.1,2.2,8.4,5.4,8.4,5.4L677.5,298.3z M315.8,220.5h264.4v100.1h107.2V776
				c0,1.6,0,3.5-3.9,3.7H315.6c-1.6,0-3.5,0-3.7-3.9V224.2C311.9,222.7,311.9,220.7,315.8,220.5 M709.8,776V319.3
				c0-2-0.4-19.8-13.3-33.4l-69.2-73.4c-1.4-1.5-14.1-14.4-33.3-14.4H315.6c-10.5,0-26.1,6.9-26.1,26.1V776c0,10.5,7,26.1,26.1,26.1
				h368C694.2,802.1,709.8,795.1,709.8,776"/>
			<path class="st0" d="M683.7,805.1h-368c-21.4,0-29.2-17.4-29.2-29.2V224.2c0-21.4,17.4-29.2,29.2-29.2H594
				c20.5,0,34,13.7,35.5,15.3l69.2,73.3c13.7,14.5,14.1,33.4,14.1,35.5V776C712.8,797.4,695.4,805.1,683.7,805.1z M315.6,201.2
				c-9.3,0-23,6.1-23,23V776c0,9.3,6.1,23,23,23h368c9.3,0,23-6.1,23-23V319.3c0-1.9-0.3-18.5-12.5-31.3L625,214.6
				c-1.3-1.4-13.2-13.4-31-13.4L315.6,201.2L315.6,201.2z M683.6,782.8h-368c-4.3,0-6.6-2.3-6.8-6.8v-0.2V224.2
				c0-4.3,2.3-6.6,6.8-6.8h0.1h267.5v100.1h107.2V776C690.5,780.3,688.2,782.6,683.6,782.8L683.6,782.8z M315.1,776.6
				c0.2,0,0.4,0,0.5,0h367.8c0.4,0,0.7-0.1,0.9-0.1c0-0.2,0-0.4,0-0.5V323.7H577.1V223.6H315.9c-0.4,0-0.7,0.1-0.9,0.1
				c0,0.2,0,0.4,0,0.5v551.5C315,776.2,315,776.5,315.1,776.6z M684.6,301.4h-85.1v-83.6l4.3,1.8c5.7,2.4,9.4,6.1,9.4,6.1
				L684.6,301.4z M605.6,295.2h64.7L608.8,230c-0.2-0.2-1.4-1.3-3.2-2.5L605.6,295.2L605.6,295.2z"/>
		</g>
		<path class="st0" d="M629.4,454H369.9c-6.8,0-12.2-5.5-12.2-12.2c0-6.8,5.5-12.2,12.2-12.2h259.5c6.8,0,12.2,5.5,12.2,12.2
			C641.7,448.5,636.2,454,629.4,454z"/>
		<path class="st0" d="M629.4,545.2H369.9c-6.8,0-12.2-5.5-12.2-12.2c0-6.8,5.5-12.2,12.2-12.2h259.5c6.8,0,12.2,5.5,12.2,12.2
			C641.7,539.7,636.2,545.2,629.4,545.2z"/>
		<path class="st0" d="M545.6,636.3H369.9c-6.8,0-12.2-5.5-12.2-12.2c0-6.8,5.5-12.2,12.2-12.2h175.7c6.8,0,12.2,5.5,12.2,12.2
			C557.8,630.8,552.3,636.3,545.6,636.3z"/>
	</g>
	<g id="Ebene_3">
	</g>
</g>
</svg>
