<?xml version="1.0" encoding="UTF-8" standalone="no"?>
<!-- Created with Inkscape (http://www.inkscape.org/) -->

<svg
   version="1.1"
   id="svg2"
   xml:space="preserve"
   width="555.5907"
   height="113.38587"
   viewBox="0 0 555.5907 113.38587"
   xmlns="http://www.w3.org/2000/svg"
   xmlns:svg="http://www.w3.org/2000/svg"><defs
     id="defs6"><clipPath
       clipPathUnits="userSpaceOnUse"
       id="clipPath16"><path
         d="M 0,85.039 H 416.693 V 0 H 0 Z"
         id="path14" /></clipPath></defs><g
     id="g8"
     transform="matrix(1.3333333,0,0,-1.3333333,0,113.38587)"><g
       id="g10"><g
         id="g12"
         clip-path="url(#clipPath16)"><g
           id="g18"
           transform="translate(5.7773,63.739)"><path
             d="M 0,0 -4.263,0.316 V 8.18 H 18.395 V 0.482 L 15.826,0.243 C 14.453,0 13.889,-0.253 13.889,-2.088 V -13.266 H 31.32 V 0.073 L 27.388,0.394 V 8.18 h 22.18 V 0.555 L 47.155,0.316 C 45.637,0.073 45.238,-0.253 45.238,-2.17 v -34.873 l 4.165,-0.321 v -7.883 h -22.58 v 7.727 l 2.58,0.244 c 1.518,0.233 1.917,0.647 1.917,2.555 v 11.654 H 13.889 v -14.059 l 4.165,-0.316 v -7.805 H -4.351 v 7.645 l 2.414,0.238 C -0.399,-37.126 0,-36.721 0,-34.79 Z"
             style="fill:#000000;fill-opacity:1;fill-rule:nonzero;stroke:none"
             id="path20" /></g><g
           id="g22"
           transform="translate(109.1388,34.9691)"><path
             d="m 0,0 c 0,-10.847 -9.635,-17.514 -22.172,-17.514 -14.063,0 -22.472,5.703 -22.472,18.638 V 28.77 l -4.273,0.316 v 7.864 h 22.668 v -7.698 l -2.638,-0.239 c -1.372,-0.243 -1.937,-0.496 -1.937,-2.331 V 0.642 c 0,-6.418 4.478,-8.273 9.538,-8.273 4.818,0 8.672,2.497 8.672,7.942 V 28.843 L -16.4,29.164 V 36.95 H 4.428 V 29.325 L 2.005,29.086 C 0.486,28.843 0,28.517 0,26.682 Z"
             style="fill:#000000;fill-opacity:1;fill-rule:nonzero;stroke:none"
             id="path24" /></g><g
           id="g26"
           transform="translate(153.0916,50.6193)"><path
             d="m 0,0 10.57,11.426 c 0.749,0.72 1.742,1.645 3.075,1.937 l 2.093,0.365 v 7.567 H -4.584 V 13.601 L -1.772,13.363 -17.324,-3.046 V 11.27 c 0,1.363 0.633,2.093 1.849,2.166 l 1.995,0.165 v 7.694 h -21.937 v -7.859 l 4.35,-0.311 v -35.111 c 0,-1.373 -0.642,-2.107 -1.849,-2.171 l -2.501,-0.326 v -7.64 h 21.052 v 7.801 l -2.959,0.229 v 6.725 l 7.796,7.99 6.54,-12.696 c 0.564,-1.056 0.564,-1.859 -0.73,-2.083 l -2.501,-0.326 v -7.64 h 24.185 v 7.879 l -5.673,0.647 z"
             style="fill:#000000;fill-opacity:1;fill-rule:nonzero;stroke:none"
             id="path28" /></g><g
           id="g30"
           transform="translate(299.5209,64.6609)"><path
             d="M 0,0 C 0,3.458 -0.515,6.107 -0.883,7.285 H -1.987 L -12.288,5.151 V 2.796 c 4.341,-0.147 5.592,-0.883 5.592,-6.254 v -35.321 c 0,-4.194 -0.957,-4.856 -5.151,-5.15 v -2.502 H 5.151 v 2.502 C 0.515,-43.709 0,-42.899 0,-39.294 v 20.089 c 2.943,2.869 5.74,4.635 10.155,4.635 3.532,0 5.371,-1.692 5.371,-6.033 v -18.691 c 0,-3.605 -0.515,-4.415 -5.151,-4.635 v -2.502 h 16.63 v 2.502 c -3.9,0.294 -4.783,0.956 -4.783,5.15 v 19.5 c 0,6.402 -4.047,9.86 -9.934,9.86 -5.592,0 -8.977,-2.722 -12.288,-6.034 z m 48.05,-46.431 v 2.502 c -4.636,0.22 -5.151,0.956 -5.151,5.15 v 29.434 h -1.104 l -10.964,-2.943 v -2.208 c 4.341,-0.147 5.372,-0.883 5.372,-6.255 v -18.028 c 0,-4.194 -0.957,-4.856 -5.151,-5.15 v -2.502 z M 43.635,0.957 c 0,2.575 -1.987,4.635 -4.563,4.635 -2.575,0 -4.562,-2.06 -4.562,-4.635 0,-2.576 1.987,-4.636 4.562,-4.636 2.576,0 4.563,2.06 4.563,4.636 M 64.238,0 c 0,2.943 -0.368,5.74 -0.883,7.285 H 62.251 L 51.655,5.151 V 2.796 c 4.636,-0.147 5.886,-0.883 5.886,-6.254 v -35.321 c 0,-4.194 -0.956,-4.856 -5.445,-5.15 v -2.502 h 17.587 v 2.502 c -4.783,0.22 -5.445,1.03 -5.445,5.371 z m 21.265,-10.302 v 6.991 c 0,5.077 1.618,6.99 4.415,6.99 1.986,0 3.017,-1.398 3.384,-3.826 h 4.489 V 5.96 c -1.766,0.736 -4.415,1.325 -7.211,1.325 -6.917,0 -11.7,-3.9 -11.7,-10.67 v -6.917 l -4.636,-1.692 v -2.355 h 4.636 v -24.43 c 0,-4.194 -0.957,-4.856 -5.151,-5.15 v -2.502 h 18.396 v 2.502 c -5.739,0.22 -6.549,1.177 -6.549,5.15 v 24.43 h 13.981 v -23.179 c 0,-7.358 3.385,-9.933 8.904,-9.933 2.502,0 4.856,0.662 7.284,1.913 l -0.588,2.649 c -1.545,-0.515 -2.944,-0.736 -4.194,-0.736 -3.68,0 -4.71,1.324 -4.71,7.064 v 22.222 h 7.8 l 1.03,4.047 h -8.756 c 0,3.753 0.294,8.389 0.662,11.038 l -3.458,-0.883 c -1.693,-2.723 -2.797,-6.696 -3.459,-10.155 z"
             style="fill:#000000;fill-opacity:1;fill-rule:nonzero;stroke:none"
             id="path32" /></g><g
           id="g34"
           transform="translate(272.8788,46.4464)"><path
             d="m 0,0 c 2.836,4.38 7.876,16.039 -6.679,29.777 -12.601,9.956 -19.906,8.009 -24.745,6.729 l -0.565,-0.15 c -3.552,-1.158 -9.025,-4.834 -14.045,-8.59 -0.307,0.322 -0.547,0.559 -0.835,0.843 l -0.531,0.525 c -4.634,4.633 -10.77,7.221 -17.28,7.285 -6.57,0.074 -12.625,-2.41 -17.182,-6.968 -4.616,-4.615 -7.158,-10.761 -7.158,-17.305 0,-6.545 2.541,-12.691 7.158,-17.307 l 0.852,-0.852 c 1.041,-1.039 2.61,-2.605 2.906,-2.905 l 1.007,-1.175 -3.349,-3.35 c -1.228,-1.227 -1.904,-2.859 -1.904,-4.595 0,-1.736 0.676,-3.368 1.903,-4.594 1.227,-1.229 2.859,-1.904 4.595,-1.904 0.169,0 0.335,0.011 0.502,0.024 -0.013,-0.166 -0.024,-0.333 -0.024,-0.502 0,-1.735 0.676,-3.367 1.903,-4.594 1.227,-1.227 2.859,-1.904 4.595,-1.904 0.167,0 0.332,0.012 0.497,0.024 -0.012,-0.165 -0.024,-0.33 -0.024,-0.498 0,-1.735 0.676,-3.367 1.904,-4.593 1.227,-1.229 2.858,-1.905 4.594,-1.905 0.154,0 0.307,0.012 0.459,0.023 -0.01,-0.153 -0.022,-0.305 -0.022,-0.459 0,-1.736 0.676,-3.367 1.903,-4.594 1.228,-1.228 2.859,-1.904 4.595,-1.904 1.735,0 3.368,0.676 4.596,1.903 l 5.563,5.564 1.647,-1.647 c 1.228,-1.228 2.861,-1.903 4.596,-1.903 1.735,0 3.367,0.675 4.594,1.903 0.916,0.916 1.524,2.057 1.774,3.297 1.181,-0.846 2.576,-1.274 3.971,-1.274 1.75,0 3.496,0.663 4.803,1.979 1.288,1.273 1.998,2.982 1.999,4.812 0,0.213 -0.01,0.425 -0.03,0.635 2,-0.175 4.04,0.554 5.413,1.936 1.29,1.275 2,2.987 2,4.819 0,0.203 -0.009,0.405 -0.027,0.606 1.936,-0.173 3.933,0.483 5.412,1.96 1.286,1.282 1.994,2.99 1.994,4.81 0,1.819 -0.708,3.527 -1.997,4.816 -0.018,0.018 -0.181,0.18 -0.464,0.462 0.15,0.078 0.294,0.174 0.419,0.302 C -8.438,-10.157 -1.98,-3.454 0,0"
             style="fill:#fdd319;fill-opacity:1;fill-rule:nonzero;stroke:none"
             id="path36" /></g><g
           id="g38"
           transform="translate(261.9916,27.8524)"><path
             d="m 0,0 c -1.365,-1.362 -3.547,-1.42 -4.98,-0.173 -0.056,0.061 -0.113,0.119 -0.17,0.178 l -13.563,13.558 c -0.618,0.614 -1.614,0.613 -2.23,-0.004 -0.615,-0.617 -0.615,-1.614 0.001,-2.23 L -7.395,-2.232 c 0.059,-0.061 0.121,-0.119 0.182,-0.176 0.582,-0.665 0.9,-1.506 0.9,-2.392 0,-0.982 -0.377,-1.897 -1.073,-2.585 -0.657,-0.661 -1.596,-1.04 -2.579,-1.04 -0.899,0 -1.764,0.318 -2.409,0.877 -0.055,0.059 -0.11,0.116 -0.167,0.172 L -26.09,6.176 c -0.616,0.616 -1.615,0.616 -2.231,10e-4 -0.616,-0.616 -0.617,-1.615 -10e-4,-2.232 l 13.543,-13.561 c 0.057,-0.058 0.117,-0.115 0.176,-0.171 0.586,-0.661 0.907,-1.506 0.907,-2.402 -10e-4,-0.98 -0.378,-1.892 -1.073,-2.58 -1.38,-1.389 -3.662,-1.417 -5.088,-0.066 -0.016,0.015 -0.06,0.054 -0.077,0.068 l -5.701,5.562 c 0.042,0.297 0.073,0.596 0.073,0.901 0,1.737 -0.676,3.367 -1.904,4.594 -0.962,0.964 -2.176,1.582 -3.492,1.806 1.06,2.387 0.62,5.284 -1.334,7.239 -0.896,0.896 -1.992,1.468 -3.146,1.73 0.802,1.102 1.241,2.421 1.241,3.809 0,1.735 -0.676,3.367 -1.904,4.594 -1.227,1.228 -2.859,1.904 -4.594,1.904 -1.39,0 -2.709,-0.44 -3.812,-1.243 -0.261,1.156 -0.834,2.255 -1.732,3.153 -2.533,2.532 -6.656,2.533 -9.189,0 l -8.543,-8.543 -0.885,1.032 c -0.023,0.027 -0.046,0.052 -0.07,0.077 -0.176,0.179 -1.865,1.867 -2.967,2.966 l -0.851,0.851 c -4.02,4.02 -6.233,9.373 -6.233,15.074 0,5.702 2.214,11.055 6.234,15.075 3.953,3.953 9.249,6.086 14.919,6.043 5.679,-0.056 11.036,-2.315 15.082,-6.362 l 0.006,-0.006 0.549,-0.545 c 0.181,-0.178 0.34,-0.334 0.509,-0.506 -4.102,-3.184 -11.91,-9.443 -12.654,-11.179 -1.073,-2.505 0.597,-5.904 4.89,-7.812 7.707,-2.904 17.175,6.161 18.409,7.384 C -15.179,20.275 -0.186,5.339 -0.001,5.155 0.687,4.468 1.066,3.552 1.066,2.576 1.066,1.601 0.687,0.686 0,0 m -25.318,-18.772 c -1.262,-1.262 -3.464,-1.263 -4.726,10e-4 l -1.647,1.647 4.225,4.226 c 0.169,0.168 0.324,0.345 0.471,0.528 l 1.677,-1.676 c 0.631,-0.631 0.979,-1.471 0.979,-2.363 0,-0.893 -0.348,-1.732 -0.979,-2.363 m -16.402,-3.916 c -1.261,-1.264 -3.463,-1.264 -4.726,0 -0.631,0.63 -0.979,1.469 -0.979,2.362 0,0.815 0.303,1.579 0.835,2.187 0.055,0.052 0.114,0.099 0.168,0.153 l 12.268,12.268 c 0.593,0.482 1.319,0.757 2.093,0.757 0.893,0 1.732,-0.348 2.364,-0.98 0.631,-0.631 0.978,-1.47 0.978,-2.363 0,-0.892 -0.347,-1.732 -0.978,-2.363 z m -7.101,6.799 c -1.281,-1.114 -3.348,-1.077 -4.56,0.135 -0.631,0.631 -0.979,1.47 -0.979,2.362 0,0.893 0.348,1.733 0.98,2.364 l 14.131,14.131 c 0.651,0.651 1.507,0.977 2.362,0.977 0.857,0 1.712,-0.326 2.364,-0.976 1.302,-1.304 1.302,-3.424 0,-4.727 L -36.17,-3.27 c -0.168,-0.137 -0.33,-0.283 -0.485,-0.439 L -48.678,-15.73 c -0.05,-0.051 -0.094,-0.107 -0.143,-0.159 m -6.804,7.107 c -1.264,-1.264 -3.464,-1.264 -4.728,0 -0.631,0.631 -0.979,1.47 -0.979,2.362 0,0.893 0.348,1.733 0.98,2.363 l 17.293,17.293 c 0.631,0.632 1.471,0.98 2.364,0.98 0.892,0 1.731,-0.348 2.363,-0.98 0.631,-0.631 0.978,-1.469 0.978,-2.362 0,-0.893 -0.347,-1.732 -0.979,-2.363 z m -6.976,6.975 c -1.264,-1.263 -3.463,-1.263 -4.727,0 -0.631,0.631 -0.979,1.47 -0.979,2.363 0,0.892 0.348,1.732 0.979,2.363 l 14.131,14.131 c 0.652,0.652 1.508,0.977 2.363,0.977 0.856,0 1.712,-0.325 2.363,-0.977 1.303,-1.303 1.303,-3.423 0,-4.726 z m 42.385,53.741 0.486,0.128 c 4.485,1.196 10.618,2.823 21.887,-6.067 12.275,-11.593 9.087,-21.072 6.044,-25.765 -1.828,-3.19 -8.218,-9.826 -8.283,-9.893 -0.11,-0.114 -0.192,-0.242 -0.262,-0.375 -4.13,4.143 -12.585,12.672 -20.52,20.96 4.932,-0.912 11.658,-0.334 17.724,6.421 0.578,0.645 0.522,1.639 -0.121,2.219 -0.642,0.579 -1.64,0.528 -2.216,-0.119 -9.404,-10.482 -20.374,-3.514 -20.835,-3.214 -0.632,0.412 -1.47,0.319 -1.996,-0.228 -1.592,-1.657 -6.433,-6.215 -9.622,-7.343 -1.941,-0.582 -5.558,-1.26 -7.967,0.742 -0.06,0.049 -0.121,0.091 -0.188,0.131 -1.041,0.635 -1.085,1.18 -1.099,1.363 -0.095,1.159 1.329,2.784 2.044,3.398 0.177,0.15 17.695,15.289 24.924,17.642 m 31.103,-33.34 c 2.836,4.38 7.876,16.039 -6.679,29.777 -12.601,9.956 -19.906,8.009 -24.745,6.729 l -0.565,-0.15 c -3.552,-1.158 -9.025,-4.834 -14.045,-8.59 -0.307,0.322 -0.546,0.559 -0.834,0.843 l -0.532,0.526 c -4.633,4.632 -10.77,7.22 -17.28,7.284 -6.57,0.074 -12.624,-2.41 -17.182,-6.968 -4.616,-4.615 -7.158,-10.761 -7.158,-17.305 0,-6.545 2.542,-12.691 7.158,-17.307 l 0.852,-0.852 c 1.041,-1.039 2.61,-2.605 2.906,-2.905 l 1.008,-1.175 -3.35,-3.35 c -1.228,-1.227 -1.904,-2.859 -1.904,-4.595 0,-1.736 0.676,-3.368 1.903,-4.594 1.227,-1.229 2.859,-1.904 4.595,-1.904 0.169,0 0.336,0.011 0.502,0.024 -0.013,-0.166 -0.024,-0.333 -0.024,-0.502 0,-1.735 0.676,-3.367 1.903,-4.594 1.227,-1.227 2.859,-1.904 4.595,-1.904 0.167,0 0.332,0.012 0.498,0.024 -0.013,-0.165 -0.025,-0.33 -0.025,-0.498 0,-1.735 0.677,-3.367 1.904,-4.593 1.227,-1.229 2.859,-1.905 4.594,-1.905 0.155,0 0.307,0.012 0.459,0.023 -0.01,-0.153 -0.022,-0.305 -0.022,-0.459 0,-1.736 0.676,-3.367 1.903,-4.594 1.228,-1.228 2.86,-1.904 4.595,-1.904 1.735,0 3.368,0.676 4.596,1.903 l 5.563,5.564 1.648,-1.647 c 1.227,-1.227 2.86,-1.903 4.595,-1.903 1.736,0 3.368,0.676 4.594,1.903 0.916,0.916 1.524,2.057 1.775,3.297 1.18,-0.846 2.575,-1.273 3.97,-1.273 1.75,0 3.496,0.662 4.803,1.978 1.288,1.273 1.998,2.982 1.999,4.812 0,0.213 -0.01,0.425 -0.029,0.635 2,-0.174 4.039,0.554 5.412,1.936 1.29,1.275 2,2.987 2,4.819 0,0.203 -0.009,0.405 -0.027,0.606 1.936,-0.173 3.933,0.483 5.413,1.96 1.286,1.282 1.994,2.99 1.994,4.81 0,1.82 -0.708,3.528 -1.997,4.816 C 2.207,7.41 2.044,7.573 1.762,7.854 1.912,7.932 2.055,8.028 2.18,8.156 2.449,8.437 8.907,15.14 10.887,18.594"
             style="fill:#000000;fill-opacity:1;fill-rule:nonzero;stroke:none"
             id="path40" /></g></g></g></g></svg>
