<?xml version="1.0" encoding="utf-8"?>
<!-- Generator: Adobe Illustrator 26.0.3, SVG Export Plug-In . SVG Version: 6.00 Build 0)  -->
<svg version="1.1" xmlns="http://www.w3.org/2000/svg" xmlns:xlink="http://www.w3.org/1999/xlink" x="0px" y="0px"
	 viewBox="0 0 96 96" style="enable-background:new 0 0 96 96;" xml:space="preserve">
<style type="text/css">
	.st0{clip-path:url(#SVGID_00000168826986880210005190000008881689856366101397_);fill:#4E7380;}
	.st1{fill:#4E7380;}
	.st2{fill:none;stroke:#4E7380;stroke-width:4;stroke-miterlimit:10;}
	.st3{clip-path:url(#SVGID_00000183933801290396193370000016187062928915637694_);fill:#4E7380;}
	.st4{clip-path:url(#SVGID_00000178915937574069684740000011012215059732928950_);fill:#4E7380;}
	.st5{clip-path:url(#SVGID_00000116214059704006109530000005245772701010464399_);fill:#4E7380;}
	.st6{clip-path:url(#SVGID_00000132049654504431442500000011282043621710987924_);fill:#4E7380;}
	.st7{clip-path:url(#SVGID_00000083062675456391531810000004321644778614795412_);fill:#4E7380;}
	.st8{clip-path:url(#SVGID_00000157300685348633335120000017284388679549826183_);fill:#4E7380;}
	.st9{clip-path:url(#SVGID_00000094585939148014707560000011715906814358573464_);fill:#FCD41A;}
	.st10{clip-path:url(#SVGID_00000094585939148014707560000011715906814358573464_);fill:#4E7380;}
	.st11{clip-path:url(#SVGID_00000042716138620646607200000010375920020438505384_);fill:#FCD41A;}
	.st12{clip-path:url(#SVGID_00000042716138620646607200000010375920020438505384_);fill:#4E7380;}
	.st13{clip-path:url(#SVGID_00000042716138620646607200000010375920020438505384_);fill:none;stroke:#4E7380;stroke-width:2.787;}
	.st14{fill:#FFFFFF;}
	.st15{fill:none;stroke:#4E7380;stroke-width:2.787;}
</style>
<g id="Ebene_2">
</g>
<g id="Ebene_1">
</g>
<g id="Ebene_3">
	<g>
		<path class="st1" d="M48,95.5C21.81,95.5,0.5,74.19,0.5,48C0.5,21.81,21.81,0.5,48,0.5S95.5,21.81,95.5,48
			C95.5,74.19,74.19,95.5,48,95.5z M48,3.74C23.59,3.74,3.74,23.59,3.74,48c0,24.41,19.86,44.26,44.26,44.26S92.26,72.41,92.26,48
			C92.26,23.59,72.41,3.74,48,3.74z"/>
		<path class="st1" d="M55.56,71.35c0-1.21-0.47-2.35-1.33-3.2l-3.59-3.59c0.68,1.51,1.16,2.6,1.16,2.6l-0.84,0.82l1.72,1.72
			c0.44,0.44,0.68,1.03,0.68,1.65c0,0.62-0.24,1.21-0.68,1.65c-0.44,0.44-1.02,0.68-1.65,0.68h0c-0.62,0-1.21-0.24-1.65-0.68
			l-1.76-1.76l-1.52,1.48l-0.18-0.07l1.9,1.9c0.86,0.86,1.99,1.33,3.2,1.33h0c1.21,0,2.35-0.47,3.2-1.33
			C55.09,73.7,55.56,72.56,55.56,71.35"/>
		<path class="st1" d="M43.68,30.6c0.85-0.78,1.85-1.67,2.71-2.37c-0.04-0.05-0.08-0.1-0.12-0.15c-0.48-0.53-0.72-0.77-1.04-1.08
			c-0.1-0.1-0.22-0.22-0.36-0.36c-6.69-6.69-17.46-6.78-24.03-0.22c-3.22,3.22-4.99,7.5-4.99,12.06s1.77,8.85,4.99,12.06
			c0.29,0.29,2.1,2.16,2.98,3.06l0.64,0.66c0.12,0.12,0.25,0.22,0.38,0.31l1.79-1.59c-0.38-0.16-0.59-0.25-0.6-0.25l-0.63-0.65
			c-0.94-0.97-2.69-2.78-3-3.09c-2.8-2.8-4.35-6.53-4.35-10.51c0-3.97,1.54-7.71,4.35-10.51c5.71-5.7,15.09-5.61,20.91,0.22
			c0.15,0.15,0.27,0.27,0.38,0.38c0.3,0.3,0.51,0.5,0.94,0.98l-0.13,0.09c-0.13,0.09-0.26,0.18-0.38,0.26
			C43.89,30.08,43.74,30.33,43.68,30.6 M73.27,58.11c0-1.27-0.49-2.46-1.39-3.35l0,0c0,0,0,0,0,0c-0.1-0.1-10.89-10.84-19.12-19.58
			c-0.94,0.68-2.06,1.49-3.04,2.21c0.15-0.04,0.3-0.11,0.43-0.22l0.82-0.69c8.27,8.79,19.22,19.7,19.36,19.84
			c0.48,0.48,0.74,1.12,0.74,1.8c0,0.68-0.26,1.32-0.74,1.8c-0.95,0.95-2.47,0.99-3.47,0.12c-0.04-0.04-0.08-0.08-0.12-0.12
			l-8.85-8.85c-0.02-0.02-0.04-0.04-0.06-0.07l-0.54-0.54c-0.43-0.43-1.13-0.43-1.55,0c-0.43,0.43-0.43,1.12,0,1.55l9.45,9.46
			c0.04,0.04,0.08,0.08,0.13,0.12c0.41,0.46,0.63,1.05,0.63,1.67c0,0.68-0.26,1.32-0.75,1.8c-0.46,0.46-1.11,0.72-1.8,0.72
			c0,0,0,0,0,0c-0.63,0-1.23-0.22-1.68-0.61c-0.02-0.02-0.04-0.04-0.05-0.06c-0.03-0.03-0.07-0.08-0.12-0.12l-0.77-0.77
			c-2.87-2.87-5.74-5.74-8.61-8.62c0,0,0,0,0,0c-0.43-0.43-1.13-0.43-1.56,0c-0.43,0.43-0.43,1.13,0,1.56l9.44,9.45
			c0.04,0.04,0.08,0.08,0.12,0.12c0.41,0.46,0.63,1.05,0.63,1.68c0,0.68-0.26,1.32-0.75,1.8c-0.96,0.97-2.56,0.99-3.55,0.05
			c-0.02-0.01-0.03-0.03-0.05-0.04c0,0,0,0,0,0l-3.63-3.54c-0.5,0.46-1.05,0.96-1.63,1.49l3.72,3.63c0.03,0.03,0.07,0.06,0.1,0.09
			c0.91,0.85,2.08,1.27,3.24,1.27c1.22,0,2.44-0.46,3.35-1.38c0.9-0.89,1.39-2.08,1.39-3.35c0-0.15-0.01-0.3-0.02-0.44
			c0.14,0.01,0.28,0.02,0.42,0.02h0c1.26,0,2.49-0.5,3.35-1.37c0.9-0.89,1.39-2.08,1.39-3.36c0-0.14-0.01-0.28-0.02-0.42
			c1.35,0.12,2.74-0.34,3.77-1.37C72.77,60.57,73.27,59.38,73.27,58.11"/>
		<path class="st1" d="M73.26,26.19c-8.78-6.94-13.88-5.58-17.25-4.69l-0.39,0.11c-2.48,0.81-6.31,3.38-9.82,6.01
			c-0.03-0.02-9.85,7.46-10.56,9.11c-0.75,1.75,0.42,4.12,3.41,5.45c5.74,2.16,12.87-5.19,12.93-5.24
			c2.44,1.24,10.05,4.2,16.56-3.05c0.4-0.45,0.36-1.14-0.08-1.55c-0.45-0.4-1.14-0.37-1.55,0.08c-6.56,7.31-14.2,2.45-14.52,2.24
			c-0.44-0.29-1.02-0.22-1.39,0.16c-1.11,1.16-4.48,4.33-6.71,5.12c-1.35,0.41-3.87,0.88-5.55-0.52c-0.04-0.03-0.08-0.06-0.13-0.09
			c-0.73-0.44-0.76-0.82-0.77-0.95c-0.07-0.81,0.93-1.94,1.43-2.37c0.12-0.11,12.34-10.66,17.37-12.3l0.34-0.09
			c3.13-0.83,7.4-1.97,15.26,4.23c8.56,8.08,6.34,14.69,4.21,17.96c-1.27,2.22-5.73,6.85-5.77,6.9c-0.42,0.44-0.41,1.13,0.03,1.55
			c0.21,0.2,0.49,0.31,0.76,0.31c0.29,0,0.57-0.11,0.79-0.34c0.19-0.2,4.69-4.87,6.07-7.28C79.89,43.89,83.41,35.77,73.26,26.19"/>
		<path class="st1" d="M41.96,50c-0.62,0-1.21,0.24-1.65,0.68L28.25,62.74c-0.44,0.44-0.68,1.03-0.68,1.65
			c0,0.62,0.24,1.21,0.68,1.65c0.91,0.91,2.39,0.91,3.29,0L43.6,53.98c0.44-0.44,0.68-1.03,0.68-1.65c0-0.62-0.24-1.21-0.68-1.65
			C43.16,50.24,42.58,50,41.96,50 M29.9,68.91c-1.16,0-2.32-0.44-3.2-1.32c-0.86-0.86-1.33-1.99-1.33-3.2c0-1.21,0.47-2.35,1.33-3.2
			l12.06-12.06c0.86-0.86,1.99-1.33,3.2-1.33c1.21,0,2.35,0.47,3.2,1.33c0.86,0.86,1.33,1.99,1.33,3.2c0,1.21-0.47,2.35-1.33,3.2
			L33.1,67.59C32.22,68.47,31.06,68.91,29.9,68.91"/>
		<path class="st1" d="M34.89,47.34c-0.6,0-1.19,0.23-1.65,0.68l-9.85,9.85c-0.44,0.44-0.68,1.03-0.68,1.65
			c0,0.62,0.24,1.21,0.68,1.65c0.91,0.91,2.39,0.91,3.29,0l9.85-9.85c0.44-0.44,0.68-1.03,0.68-1.65c0-0.62-0.24-1.21-0.68-1.65
			C36.08,47.57,35.48,47.34,34.89,47.34 M25.04,64.05c-1.16,0-2.32-0.44-3.2-1.32c-0.86-0.86-1.33-1.99-1.33-3.2
			c0-1.21,0.47-2.35,1.33-3.2l9.85-9.85c1.77-1.77,4.64-1.77,6.41,0c0.86,0.86,1.33,1.99,1.33,3.2c0,1.21-0.47,2.35-1.33,3.2
			l-9.85,9.85C27.36,63.61,26.2,64.05,25.04,64.05"/>
		<path class="st1" d="M44.61,57.07c-0.6,0-1.19,0.23-1.65,0.68l-9.85,9.85c-0.44,0.44-0.68,1.03-0.68,1.65
			c0,0.62,0.24,1.21,0.68,1.65c0.91,0.91,2.39,0.91,3.29,0l9.85-9.85c0.44-0.44,0.68-1.03,0.68-1.65c0-0.62-0.24-1.21-0.68-1.65
			C45.8,57.29,45.21,57.07,44.61,57.07 M34.76,73.77c-1.16,0-2.32-0.44-3.2-1.32c-0.86-0.86-1.33-1.99-1.33-3.2
			c0-1.21,0.47-2.35,1.33-3.2l9.85-9.85c1.77-1.77,4.64-1.77,6.41,0c0.86,0.86,1.33,1.99,1.33,3.2c0,1.21-0.47,2.35-1.33,3.2
			l-9.85,9.85C37.08,73.33,35.92,73.77,34.76,73.77"/>
		<path class="st1" d="M47.98,63.37c-0.6,0-1.19,0.23-1.65,0.68l-8.38,8.38c-0.44,0.44-0.68,1.03-0.68,1.65
			c0,0.62,0.24,1.21,0.68,1.65c0.91,0.91,2.39,0.91,3.29,0l8.38-8.38c0.44-0.44,0.68-1.03,0.68-1.65c0-0.62-0.24-1.21-0.68-1.65
			C49.17,63.6,48.57,63.37,47.98,63.37 M39.59,78.61c-1.16,0-2.32-0.44-3.2-1.32c-0.86-0.86-1.33-1.99-1.33-3.2
			c0-1.21,0.47-2.35,1.33-3.2l8.38-8.38c1.77-1.77,4.64-1.77,6.41,0c0.86,0.86,1.33,1.99,1.33,3.2c0,1.21-0.47,2.35-1.33,3.2
			l-8.38,8.38C41.91,78.17,40.75,78.61,39.59,78.61"/>
	</g>
</g>
</svg>
