<?xml version="1.0" encoding="utf-8"?>
<!-- Generator: Adobe Illustrator 25.4.1, SVG Export Plug-In . SVG Version: 6.00 Build 0)  -->
<svg version="1.1" xmlns="http://www.w3.org/2000/svg" xmlns:xlink="http://www.w3.org/1999/xlink" x="0px" y="0px"
	 viewBox="0 0 1000 1000" style="enable-background:new 0 0 1000 1000;" xml:space="preserve">
<style type="text/css">
	.st0{fill:#4E7380;}
	.st1{fill:#436E7D;}
	.st2{fill:#FFFFFF;}
	.st3{fill:none;stroke:#FFFFFF;stroke-width:20;stroke-miterlimit:10;}
	.st4{fill:none;stroke:#FFFFFF;stroke-width:23.982;stroke-miterlimit:10;}
	.st5{fill:none;stroke:#4E7380;stroke-width:15.75;stroke-miterlimit:10;}
	.st6{fill:none;stroke:#4E7380;stroke-width:27.273;}
	.st7{fill:none;stroke:#FFFFFF;stroke-width:10.6;stroke-linejoin:round;}
	.st8{fill:none;stroke:#FFFFFF;stroke-width:25;}
	.st9{fill:none;stroke:#4E7380;stroke-width:10;stroke-linejoin:round;stroke-miterlimit:10;}
	.st10{fill:none;stroke:#FFFFFF;stroke-width:0.712;stroke-miterlimit:10;}
	.st11{fill:#4E7380;stroke:#4E7380;stroke-width:3;stroke-miterlimit:10;}
</style>
<g id="Ebene_2">
	<g>
		<path class="st0" d="M497,30c63.46,0,125.01,12.42,182.94,36.92c55.96,23.67,106.23,57.56,149.4,100.74
			c43.17,43.17,77.07,93.44,100.74,149.4C954.58,374.99,967,436.54,967,500s-12.42,125.01-36.92,182.94
			c-23.67,55.96-57.56,106.23-100.74,149.4c-43.17,43.17-93.44,77.07-149.4,100.74C622.01,957.58,560.46,970,497,970
			s-125.01-12.42-182.94-36.92c-55.96-23.67-106.23-57.56-149.4-100.74c-43.17-43.17-77.07-93.44-100.74-149.4
			C39.42,625.01,27,563.46,27,500s12.42-125.01,36.92-182.94c23.67-55.96,57.56-106.23,100.74-149.4
			c43.17-43.17,93.44-77.07,149.4-100.74C371.99,42.42,433.54,30,497,30 M497,0C220.86,0-3,223.86-3,500s223.86,500,500,500
			s500-223.86,500-500S773.14,0,497,0L497,0z"/>
	</g>
</g>
<g id="Ebene_1">
	<g>
		<g>
			<path class="st0" d="M285,179.9c-5.3,0.15-11.59,2.27-11.59,11.49v603.27c0.14,5.16,2.24,11.49,11.49,11.49h418.8
				c5.17-0.14,11.49-2.24,11.49-11.49V191.39c-0.14-5.16-2.24-11.49-11.49-11.49H285z M703.7,830H284.9
				c-25.93,0-35.34-21.14-35.34-35.34V191.39c0-25.93,21.14-35.34,35.34-35.34h418.8c25.93,0,35.34,21.14,35.34,35.34v603.27
				C739.05,820.59,717.91,830,703.7,830"/>
		</g>
		<g>
			<path class="st0" d="M622.05,305.01h-255.5c-8.27,0-14.97-6.7-14.97-14.97c0-8.27,6.7-14.97,14.97-14.97h255.5
				c8.27,0,14.97,6.7,14.97,14.97C637.02,298.3,630.32,305.01,622.05,305.01"/>
			<path class="st0" d="M622.05,408.3h-255.5c-8.27,0-14.97-6.7-14.97-14.97c0-8.27,6.7-14.97,14.97-14.97h255.5
				c8.27,0,14.97,6.7,14.97,14.97C637.02,401.59,630.32,408.3,622.05,408.3"/>
			<path class="st0" d="M622.05,511.58h-255.5c-8.27,0-14.97-6.7-14.97-14.97c0-8.27,6.7-14.97,14.97-14.97h255.5
				c8.27,0,14.97,6.7,14.97,14.97C637.02,504.88,630.32,511.58,622.05,511.58"/>
		</g>
	</g>
</g>
</svg>
